<svg xmlns="http://www.w3.org/2000/svg" viewBox="0 0 200 200"><g fill="none" fill-rule="evenodd"><rect fill="#F5F5F5" width="200" height="200" rx="100"/><ellipse fill="#EAEAEA" cx="100" cy="142" rx="80" ry="28"/><g transform="translate(35 53)"><path d="M129.19 73.072c-1 5.537-5.754 10.438-12.765 13.97-7.07 3.563-16.445 5.73-26.735 5.73-10.299 0-19.682-2.171-26.733-5.739-6.98-3.53-11.687-8.427-12.604-13.958l-.161-49.846h78.998z" stroke="#3A984E" fill="#82BA8E"/><path d="M88.936 92.75H1.254v-49.5h87.682v49.5z" stroke="#3A984E" fill="#82BA8E"/><path stroke="#3A984E" stroke-linecap="square" d="M116.9 37.5v48m-58.45-41v48m-28.217-48v48"/><path d="M49.4 43.5h34.264C71.619 39.8 63.7 36.732 59.91 34.296c-3.791-2.435-7.294-6.368-10.51-11.796v21z" fill="#3A984E"/><ellipse stroke="#3A984E" fill="#82BA8E" transform="rotate(90 89.69 22)" cx="89.69" cy="22" rx="21.5" ry="39.81"/><ellipse fill="#3A984E" transform="rotate(90 89.186 23)" cx="89.186" cy="23" rx="7.5" ry="14.109"/></g><rect fill="#3A984E" x="58" y="100" width="3" height="24" rx="1"/><rect fill="#3A984E" x="48" y="100" width="3" height="20" rx="1"/><rect fill="#3A984E" x="87" y="100" width="3" height="20" rx="1"/><rect fill="#3A984E" x="117" y="100" width="3" height="26" rx="1"/><rect fill="#3A984E" x="107" y="100" width="3" height="30" rx="1"/><rect fill="#3A984E" x="145" y="96" width="3" height="30" rx="1"/><rect fill="#3A984E" x="53" y="100" width="3" height="33" rx="1"/><rect fill="#3A984E" x="82" y="100" width="3" height="25" rx="1"/><rect fill="#3A984E" x="77" y="100" width="3" height="31" rx="1"/><rect fill="#3A984E" x="112" y="100" width="3" height="33" rx="1"/><rect fill="#3A984E" x="140" y="98" width="3" height="25" rx="1"/><rect fill="#3A984E" x="135" y="100" width="3" height="25" rx="1"/><rect fill="#3A984E" x="159" y="88" width="3" height="25" rx="1"/></g></svg>