<svg xmlns="http://www.w3.org/2000/svg" viewBox="0 0 200 200"><g fill="none" fill-rule="evenodd"><rect fill="#F5F5F5" width="200" height="200" rx="100"/><ellipse fill="#EAEAEA" cx="100" cy="142" rx="80" ry="28"/><g opacity=".8" transform="translate(35 43)"><rect fill="#2E8C43" x="10" y="19" width="81" height="69" rx=".15"/><path d="M10.256 19.258l15.7 15.819a.15.15 0 0 1 .044.105v68.454a.15.15 0 0 1-.256.106l-15.7-15.819a.15.15 0 0 1-.044-.105V19.364a.15.15 0 0 1 .256-.106zm94.026 12.256l8.383 15.296a.15.15 0 0 0 .003.005l4.151 6.886a.15.15 0 0 1-.16.224l-12.541-2.774a.15.15 0 0 1-.118-.146v-19.42a.15.15 0 0 1 .282-.071z" fill="#2E8C43"/><rect fill="#48A459" x="26" y="35" width="81" height="69" rx=".15"/><path d="M4.203 0h79.856a.15.15 0 0 1 .143.106l5.738 18.7a.15.15 0 0 1-.143.194H9.941a.15.15 0 0 1-.143-.106L4.06.194A.15.15 0 0 1 4.203 0z" fill="#48A459"/><path d="M31.941 16h80.687a.15.15 0 0 1 .143.194l-5.738 18.7a.15.15 0 0 1-.144.106H26.203a.15.15 0 0 1-.143-.194l5.738-18.7a.15.15 0 0 1 .143-.106z" fill="#3A984E"/><path d="M.079 36.82l15.67 16.038a.15.15 0 0 0 .238-.03l9.957-17.469a.15.15 0 0 0-.023-.179l-15.67-16.038a.15.15 0 0 0-.238.03L.056 36.642a.15.15 0 0 0 .023.179z" fill="#48A459"/><path fill="#88C393" d="M26 60h19v10H26zm-7-6l7 5.818V70l-7-5.818z"/><path fill="#6DB67A" d="M126 90l2 2h-2z"/><path d="M88.286 68c12.032 0 21.785 9.85 21.785 22h15.977v2c0 11.046-8.955 20-20 20H88.286C76.254 112 66.5 102.15 66.5 90s9.754-22 21.786-22z" fill="#2E8C43"/><path d="M90.286 70c12.032 0 21.785 9.85 21.785 22h15.977v2c0 11.046-8.955 20-20 20H90.286C78.254 114 68.5 104.15 68.5 92s9.754-22 21.786-22z" fill-opacity=".8" fill="#48A459"/><path d="M89.286 75.333c8.021 0 14.524 6.567 14.524 14.667s-6.503 14.667-14.524 14.667c-8.022 0-14.524-6.567-14.524-14.667s6.502-14.667 14.524-14.667zm0 9.667a5 5 0 1 0 0 10 5 5 0 0 0 0-10z" fill="#88C393"/><path fill="#6DB67A" d="M112 92l-2-2h2z"/><path d="M91.286 77.333c8.021 0 14.524 6.567 14.524 14.667s-6.503 14.667-14.524 14.667c-8.022 0-14.524-6.567-14.524-14.667s6.502-14.667 14.524-14.667zm0 9.667a5 5 0 1 0 0 10 5 5 0 0 0 0-10z" fill="#BEE2C5"/><path stroke="#BEE2C5" stroke-linecap="round" d="M95.5 78.5l33 13m0 0v2.731"/></g></g></svg>