<svg xmlns="http://www.w3.org/2000/svg" viewBox="0 0 200 200"><g fill="none" fill-rule="evenodd"><rect fill="#F5F5F5" width="200" height="200" rx="100"/><ellipse fill="#EAEAEA" cx="100" cy="142" rx="80" ry="28"/><g opacity=".8"><path d="M42.362 48h94.627a.15.15 0 0 1 .107.044l20.649 20.7a.15.15 0 0 1-.107.256H63.011a.15.15 0 0 1-.107-.044l-20.649-20.7a.15.15 0 0 1 .107-.256Z" fill="#48A459"/><path d="m42.256 48.257 20.7 20.75a.15.15 0 0 1 .044.107v82.535a.15.15 0 0 1-.254.109l-20.7-19.765a.15.15 0 0 1-.046-.109V48.363a.15.15 0 0 1 .256-.106Z" fill="#2E8C43"/><path d="M63.15 69h94.7a.15.15 0 0 1 .15.15v82.7a.15.15 0 0 1-.15.15h-94.7a.15.15 0 0 1-.15-.15v-82.7a.15.15 0 0 1 .15-.15Z" fill="#3A984E"/><path fill="#82BA8E" d="M49 55h95l6 6H55z"/><path fill="#82BA8E" d="m49 55 6 6v15l-6-5.996zM128.01 91a2.99 2.99 0 0 1 2.99 2.99v34.02a2.99 2.99 0 0 1-2.99 2.99H92.99a2.99 2.99 0 0 1-2.983-2.781l.013-3.973 3.162-1.312.253-.059.443-.18.568-.18.697-.3.821-.299.948-.358 1.075-.359 1.138-.42 2.53-.956 1.329-.478 1.453-.48 1.392-.6 1.455-.478 1.517-.54 1.454-.595 1.455-.48 1.455-.539 2.783-1.078 1.262-.478 1.266-.42 1.202-.478 1.074-.36.95-.358.884-.359.696-.24.632-.24.443-.18.317-.117.127-.061.125-.18.316-.479.38-.718.38-.898.316-.897.126-.959-.126-.777-.443-.658-.063-.12-.506-.239-.19-.06h-.19l-.19-.06h-.252l-.254-.06h-2.717v-.06l-.065-.06v-.06l-.316-.298-.19-.12-.505-.24-.38-.119-.506-.18-.505-.12-.633-.179-.759-.12-.823-.18h-.126l-.188-.059-.318-.06-.443-.06-.505-.06-.569-.12-.632-.179-.76-.119-.758-.18-.886-.12-.884-.18-.95-.18-.884-.179-1.012-.179-.949-.24-3.035-.538-.948-.24-.95-.118-.884-.24-.885-.12-.823-.179-.76-.181-1.39-.238-1.012-.24-.379-.06-.317-.06L90 98.112V93.99A2.99 2.99 0 0 1 92.99 91h35.02Zm-13.834 13.68 2.655.18 1.645.24.633.179.569.18.38.179.251.3-.062.299h-15.303l2.402 7.062.443-.239.57-.24.631-.24.76-.358.822-.3.884-.3.95-.297.949-.36 1.01-.3.95-.299 1.012-.299.947-.24.95-.18.885-.179.822-.119.759-.06.442-.06h.38l.38.06h.252l.252.06.19.06.128.238v.061h-.064l-.127.12-.189.059h-.19l-.19.06-.252.06-.76.12-1.327.358-.443.06-1.329.36-1.138.359-.316.061-.253.117-.252.06-1.708.54-3.794 1.496-.76.36-.758.298-.695.359-.759.3-.633.299-.695.358-.695.3-.57.3-.632.299-.443.18-.633.298-.821.358-.95.48-1.137.538-1.202.54-1.2.598-1.265.539-1.202.599-1.264.539-1.076.538-.948.419-.823.42-.632.238-.379.24-.19.058-.02-17.835v-.477h24.176Zm9.17 1.676.442.06.38.06.316.12.253.18.19.179.125.299v.359l-.063.3-.126.36-.19.357-.189.42-.19.359-.19.299-.126.179-.253.24-.127.06-.126-.12.063-.24.127-.418.189-.42.127-.359.063-.3.063-.238v-.24l-.126-.178-.127-.061-.19-.06h-1.707l-.441.06-.381.061-.442.058-.506.06h-.443l-.886.12h-.38l-.378.06h-.633l-.254-.06h-.251l-.128-.12v-.118l.064-.12.127-.06.188-.06.381-.06h.252l.254-.06h.316l1.265-.239.19-.06.19-.12.126-.12.125-.06.128-.24.126-.059h.064l.063-.06h2.656Z"/></g></g></svg>